<svg width="34" height="34" viewBox="0 0 34 34" fill="none" xmlns="http://www.w3.org/2000/svg">
<rect width="34" height="34" rx="17" fill="#1E1E1E"/>
<path d="M20.7974 16.4157C20.7284 16.3827 20.6584 16.3509 20.5875 16.3204C20.464 14.0449 19.2206 12.7421 17.1328 12.7287C17.1233 12.7287 17.1139 12.7287 17.1044 12.7287C15.8556 12.7287 14.817 13.2617 14.1778 14.2317L15.326 15.0194C15.8036 14.2949 16.553 14.1404 17.105 14.1404C17.1114 14.1404 17.1178 14.1404 17.1241 14.1405C17.8115 14.1448 18.3303 14.3447 18.666 14.7345C18.9104 15.0183 19.0738 15.4104 19.1547 15.9053C18.5452 15.8017 17.886 15.7699 17.1814 15.8103C15.1963 15.9246 13.9202 17.0823 14.0059 18.691C14.0494 19.507 14.4559 20.209 15.1505 20.6676C15.7378 21.0553 16.4942 21.2448 17.2803 21.2019C18.3184 21.145 19.1329 20.7489 19.701 20.0247C20.1325 19.4747 20.4054 18.7619 20.5259 17.8638C21.0207 18.1624 21.3874 18.5553 21.5899 19.0277C21.9342 19.8306 21.9543 21.15 20.8777 22.2257C19.9344 23.168 18.8006 23.5757 17.0871 23.5883C15.1863 23.5742 13.7488 22.9646 12.8141 21.7764C11.9389 20.6638 11.4866 19.0568 11.4697 17C11.4866 14.9432 11.9389 13.3361 12.8141 12.2236C13.7488 11.0354 15.1863 10.4258 17.087 10.4117C19.0016 10.4259 20.4642 11.0385 21.4346 12.2323C21.9104 12.8178 22.2692 13.5541 22.5057 14.4125L23.8513 14.0535C23.5646 12.9969 23.1135 12.0863 22.4997 11.3312C21.2556 9.80056 19.4361 9.01626 17.0917 9H17.0823C14.7427 9.01621 12.9436 9.80348 11.735 11.3399C10.6594 12.7072 10.1046 14.6096 10.086 16.9944L10.0859 17L10.086 17.0056C10.1046 19.3903 10.6594 21.2928 11.735 22.6601C12.9436 24.1965 14.7427 24.9838 17.0823 25H17.0917C19.1718 24.9856 20.6379 24.441 21.8458 23.2343C23.426 21.6555 23.3784 19.6766 22.8576 18.4618C22.4839 17.5906 21.7715 16.883 20.7974 16.4157ZM17.206 19.7923C16.336 19.8413 15.4321 19.4508 15.3876 18.6143C15.3545 17.9942 15.8289 17.3022 17.2594 17.2197C17.4232 17.2103 17.5839 17.2057 17.7419 17.2057C18.2614 17.2057 18.7475 17.2561 19.1894 17.3528C19.0246 19.4113 18.0578 19.7455 17.206 19.7923Z" fill="#9F9F9F"/>
</svg>
