<svg width="14" height="15" viewBox="0 0 14 15" fill="none" xmlns="http://www.w3.org/2000/svg">
    <path
        d="M10.9997 6.71301C10.8229 6.71301 10.6533 6.78325 10.5283 6.90827C10.4032 7.03329 10.333 7.20286 10.333 7.37967V12.1663C10.333 12.3432 10.2628 12.5127 10.1377 12.6377C10.0127 12.7628 9.84315 12.833 9.66634 12.833H2.33301C2.1562 12.833 1.98663 12.7628 1.8616 12.6377C1.73658 12.5127 1.66634 12.3432 1.66634 12.1663V4.83301C1.66634 4.6562 1.73658 4.48663 1.8616 4.3616C1.98663 4.23658 2.1562 4.16634 2.33301 4.16634H7.11967C7.29649 4.16634 7.46605 4.0961 7.59108 3.97108C7.7161 3.84605 7.78634 3.67649 7.78634 3.49967C7.78634 3.32286 7.7161 3.15329 7.59108 3.02827C7.46605 2.90325 7.29649 2.83301 7.11967 2.83301H2.33301C1.80257 2.83301 1.29387 3.04372 0.918794 3.41879C0.543722 3.79387 0.333008 4.30257 0.333008 4.83301V12.1663C0.333008 12.6968 0.543722 13.2055 0.918794 13.5806C1.29387 13.9556 1.80257 14.1663 2.33301 14.1663H9.66634C10.1968 14.1663 10.7055 13.9556 11.0806 13.5806C11.4556 13.2055 11.6663 12.6968 11.6663 12.1663V7.37967C11.6663 7.20286 11.5961 7.03329 11.4711 6.90827C11.3461 6.78325 11.1765 6.71301 10.9997 6.71301ZM13.613 1.24634C13.5454 1.08344 13.4159 0.953991 13.253 0.886341C13.1729 0.85218 13.0868 0.834061 12.9997 0.833008H8.99967C8.82286 0.833008 8.65329 0.903246 8.52827 1.02827C8.40325 1.15329 8.33301 1.32286 8.33301 1.49967C8.33301 1.67649 8.40325 1.84605 8.52827 1.97108C8.65329 2.0961 8.82286 2.16634 8.99967 2.16634H11.393L4.52634 9.02634C4.46386 9.08832 4.41426 9.16205 4.38041 9.24329C4.34657 9.32453 4.32914 9.41167 4.32914 9.49967C4.32914 9.58768 4.34657 9.67482 4.38041 9.75606C4.41426 9.8373 4.46386 9.91103 4.52634 9.97301C4.58832 10.0355 4.66205 10.0851 4.74329 10.1189C4.82453 10.1528 4.91167 10.1702 4.99967 10.1702C5.08768 10.1702 5.17482 10.1528 5.25606 10.1189C5.3373 10.0851 5.41103 10.0355 5.47301 9.97301L12.333 3.10634V5.49967C12.333 5.67649 12.4032 5.84605 12.5283 5.97108C12.6533 6.0961 12.8229 6.16634 12.9997 6.16634C13.1765 6.16634 13.3461 6.0961 13.4711 5.97108C13.5961 5.84605 13.6663 5.67649 13.6663 5.49967V1.49967C13.6653 1.41256 13.6472 1.32649 13.613 1.24634Z"
        fill="#8F8F8F"></path>
</svg>