<svg width="127" height="27" viewBox="0 0 127 27" fill="none" xmlns="http://www.w3.org/2000/svg">
<g clip-path="url(#clip0_4824_31481)">
<path d="M121.533 10.9006C123.408 10.9006 124.809 11.441 125.701 12.5445L125.78 12.6571L125.882 12.7922C126.356 13.4902 126.594 14.2446 126.582 15.0553V15.1792H124.312V15.0553C124.267 14.5937 124.109 14.1771 123.826 13.7943C123.375 13.2763 122.573 12.9948 121.387 12.9948C120.596 12.9948 120.02 13.1525 119.625 13.434C119.252 13.7154 119.06 14.0983 119.06 14.5599C119.06 15.0215 119.275 15.4269 119.726 15.7309L119.817 15.7872L119.873 15.8209C120.133 15.9673 120.494 16.1137 120.957 16.2375L121.183 16.2938L122.595 16.6429C124.131 17.0144 125.182 17.386 125.724 17.7576L125.803 17.8139C126.627 18.3993 127.023 19.2888 127.023 20.4711C127.023 21.6533 126.571 22.6666 125.69 23.5224C124.798 24.3893 123.454 24.8059 121.68 24.8059C119.771 24.8059 118.382 24.3668 117.558 23.4661C116.756 22.5653 116.327 21.4619 116.27 20.1558V20.0207H118.586V20.1445C118.653 20.8539 118.834 21.3718 119.105 21.7321L119.15 21.7884C119.659 22.3964 120.528 22.7229 121.793 22.7229C122.561 22.7229 123.239 22.5541 123.815 22.2275L123.917 22.16C124.402 21.8335 124.651 21.3606 124.651 20.7188C124.651 20.2121 124.436 19.8405 123.996 19.5703C123.702 19.4014 123.115 19.21 122.2 18.9736L120.506 18.5457C119.421 18.2755 118.597 17.9602 118.066 17.6112C117.117 17.0032 116.632 16.1587 116.632 15.0778C116.632 13.828 117.072 12.8147 117.964 12.0265L118.055 11.959C118.947 11.2271 120.122 10.8668 121.556 10.8668L121.533 10.9006ZM68.47 10.9794C72.3329 10.9794 74.2643 13.22 74.2643 16.6091V24.3893H71.9262V22.1487C70.8532 23.7926 69.0009 24.7046 67.0243 24.7046C64.4264 24.7046 62.8112 23.2409 62.8112 20.8539C62.8112 18.1179 64.9573 16.474 68.8653 16.474H71.8472V16.1587C71.8472 14.3122 70.5031 13.0849 68.0182 13.0849C66.4595 13.0849 65.0928 13.524 63.76 14.5486V12.3305C65.1041 11.4185 66.6515 10.9794 68.4813 10.9794H68.47ZM96.0635 11.2834H99.5988V13.4227H96.0296V20.3247C96.0296 21.6308 96.7863 22.4865 98.1756 22.4865C98.6274 22.4865 99.1131 22.4077 99.5988 22.205V24.288C99.0679 24.547 98.4241 24.7046 97.7012 24.7046C95.1599 24.7046 93.5673 23.1733 93.5673 20.2008V13.434H91.7488V11.2947H93.5673V7.36514H96.0635V11.2947V11.2834ZM50.8838 18.7033C50.8838 19.9306 51.2001 21.0453 51.8778 21.6983C52.386 22.2163 53.188 22.5315 54.1029 22.5315C56.4296 22.5315 57.8302 20.685 57.8302 17.69V11.2834H60.3715V24.3781H57.8754V21.8222C56.9605 23.7025 55.4583 24.6821 53.4026 24.6821C51.9004 24.6821 50.6466 24.1641 49.7543 23.2296C48.8168 22.2388 48.3651 20.7075 48.3651 18.8835V11.2834H50.8838V18.7033ZM104.501 18.7033C104.501 19.9306 104.817 21.0453 105.495 21.6983C106.003 22.2163 106.805 22.5315 107.72 22.5315C110.047 22.5315 111.447 20.685 111.447 17.69V11.2834H113.988V24.3781H111.492V21.8222C110.577 23.7025 109.075 24.6821 107.02 24.6821C105.517 24.6821 104.264 24.1641 103.371 23.2296C102.434 22.2388 101.982 20.7075 101.982 18.8835V11.2834H104.501V18.7033ZM36.3699 5.87891C41.5655 5.87891 45.7898 10.1012 45.7898 15.303C45.7898 17.7913 44.6716 20.0882 42.9887 21.8109L45.2928 24.6483H41.8253L40.8765 23.4548C39.4195 24.3218 37.8834 24.7046 36.336 24.7046C31.1403 24.7046 26.916 20.5161 26.916 15.3143C26.916 10.1124 31.1516 5.89017 36.3699 5.89017V5.87891ZM84.7573 10.9794C87.7278 10.9794 89.8287 13.1187 89.8287 16.6879V24.4006H87.2873V17.341C87.2873 14.7851 85.9997 13.175 83.8537 13.175C81.7867 13.175 80.2845 14.9202 80.2845 17.5999V24.4006H77.7657V11.3059H80.228V13.828C81.0864 12.0603 82.7242 10.9907 84.7573 10.9907V10.9794ZM68.7637 18.2642C66.403 18.2642 65.1493 19.0411 65.1493 20.5837C65.1493 21.9348 66.1094 22.7455 67.6906 22.7455C69.8932 22.7455 71.9037 21.1579 71.9037 19.3564V18.2642H68.7637ZM36.3699 8.31093C32.5635 8.31093 29.5703 11.441 29.5703 15.2918C29.5703 19.1199 32.5635 22.25 36.3699 22.25C37.2509 22.25 38.0302 22.0474 38.595 21.8335C38.8773 21.7321 39.0919 21.6308 39.2501 21.552C39.2839 21.5294 39.3178 21.5182 39.3517 21.4957L35.342 16.4627H38.6627L41.509 19.9531C42.7628 18.5457 43.1581 16.9131 43.1581 15.2805C43.1581 11.396 40.1875 8.29967 36.3812 8.29967L36.3699 8.31093Z" fill="white"/>
<path d="M3.3315 17.7209C3.41056 18.0924 3.72682 18.3739 4.09955 18.3739L12.3561 17.9686C12.774 17.9686 12.9886 17.507 12.7402 17.1692L2.47308 3.2751C2.39402 3.16251 2.50697 3.02739 2.61992 3.08369L16.3206 9.55783L0.372231 0.0436564C0.191512 -0.0801968 -0.0343863 0.0774346 -0.00050158 0.291363L3.3202 17.7209H3.3315Z" fill="url(#paint0_linear_4824_31481)"/>
<path d="M17.2925 10.8179C17.2586 10.6152 16.9762 10.604 16.9423 10.8066L15.3272 19.9493C15.2594 20.3433 14.8979 20.6023 14.5026 20.5348L4.94713 19.4539C4.74382 19.4201 4.67605 19.6903 4.85677 19.7916L19.3481 26.9301C19.7209 27.1215 20.1388 26.8287 20.0597 26.4121L17.2925 10.8179Z" fill="url(#paint1_linear_4824_31481)"/>
</g>
<defs>
<linearGradient id="paint0_linear_4824_31481" x1="2.18885" y1="4.23787" x2="16.7391" y2="22.5629" gradientUnits="userSpaceOnUse">
<stop offset="0.1" stop-color="white"/>
<stop offset="0.28" stop-color="#F8F8F8"/>
<stop offset="0.54" stop-color="#E5E5E5"/>
<stop offset="0.84" stop-color="#C7C6C6"/>
<stop offset="0.98" stop-color="#B7B6B6"/>
</linearGradient>
<linearGradient id="paint1_linear_4824_31481" x1="11.9557" y1="17.1138" x2="17.9537" y2="28.5066" gradientUnits="userSpaceOnUse">
<stop offset="0.1" stop-color="white"/>
<stop offset="0.31" stop-color="#FAFAFA"/>
<stop offset="0.52" stop-color="#EEEEEE"/>
<stop offset="0.74" stop-color="#D9D9D9"/>
<stop offset="0.96" stop-color="#BDBCBC"/>
<stop offset="1" stop-color="#B7B6B6"/>
</linearGradient>
<clipPath id="clip0_4824_31481">
<rect width="127" height="27" fill="white"/>
</clipPath>
</defs>
</svg>
